<?xml version="1.0" standalone="no"?><!DOCTYPE svg PUBLIC "-//W3C//DTD SVG 1.1//EN" "http://www.w3.org/Graphics/SVG/1.1/DTD/svg11.dtd"><svg t="1560219481618" class="icon" style="" viewBox="0 0 1024 1024" version="1.1" xmlns="http://www.w3.org/2000/svg" p-id="2623" xmlns:xlink="http://www.w3.org/1999/xlink" width="81" height="81"><defs><style type="text/css"></style></defs><path d="M657.693696 503.114752c0-18.060288-14.639104-32.72192-32.72192-32.72192-18.059264 0-32.720896 14.661632-32.720896 32.72192 0 18.059264 14.661632 32.720896 32.720896 32.720896 18.08384 0 32.72192-14.661632 32.72192-32.720896m-236.916736 0c0-18.060288-14.63808-32.72192-32.720896-32.72192-18.060288 0-32.72192 14.661632-32.72192 32.72192 0 18.059264 14.661632 32.720896 32.72192 32.720896 18.082816 0 32.720896-14.661632 32.720896-32.720896m487.912448 11.962368c-141.824 10.891264-275.734528 47.266816-391.609344 134.469632-8.285184 6.23616-12.335104 6.934528-20.666368 0.139264-92.765184-75.659264-202.14784-111.104-318.324736-128.930816-26.484736-4.072448-53.480448-5.352448-80.314368-6.469632-14.592-0.628736-21.224448-4.887552-16.523264-20.108288 15.127552-48.918528 32.069632-97.046528 61.346816-139.752448 10.938368-15.96416 19.991552-22.387712 32.16384 0.396288 44.449792 83.083264 158.998528 114.384896 240.103424 56.249344 10.263552-7.330816 18.804736-8.75008 29.789184-0.208896 17.455104 13.568 36.30592 25.367552 59.60192 41.378816 0-27.578368-0.20992-50.618368 0.139264-73.611264 0.093184-6.959104-3.141632-16.361472 6.213632-19.40992 8.122368-2.65216 13.47584 4.608 18.921472 9.495552 9.913344 8.912896 18.432 19.222528 18.803712 33.046528 0.535552 20.108288 10.031104 18.409472 23.20384 11.148288 65.792-36.236288 137.05216-55.296 210.384896-69.143552 63.394816-11.962368 88.250368-2.071552 119.016448 55.016448 14.149632 26.228736 24.73984 54.17984 32 82.991104 4.677632 18.640896 3.328 31.184896-24.250368 33.303552M465.739776 183.579648c18.199552 34.25792 16.500736 70.772736 16.407552 107.404288 1.62816 3.141632 3.84 6.096896 4.794368 9.401344 7.632896 26.57792 14.219264 28.788736 36.794368 14.127104 59.833344-38.912 125.555712-63.744 194.816-79.663104 6.259712-1.442816 14.707712-0.34816 15.685632-8.075264 0.512-4.096-4.77184-9.51808-8.448-13.381632-5.748736-6.027264-11.845632-11.98592-18.665472-16.709632-58.88-40.890368-121.669632-75.008-185.6-107.194368-9.541632-4.794368-18.73408-7.517184-29.23008-2.51392-25.832448 12.358656-51.87584 24.297472-77.824 36.375552 19.735552 17.82784 38.423552 36.072448 51.269632 60.229632M74.781696 680.895488c1.11616-1.420288 3.094528-2.76992 3.258368-4.30592 5.049344-53.271552 13.334528-49.780736 64.512-43.916288 69.840896 8.029184 137.634816 27.206656 203.193344 53.597184 54.016 21.783552 103.517184 49.780736 142.75584 93.836288 3.37408 3.792896 6.120448 9.728 15.778816 7.98208 0-25.227264-0.140288-50.850816 0.115712-76.496896 0.047104-6.144-2.000896-13.708288 5.632-17.199104 7.88992-3.607552 14.103552 0.535552 20.200448 5.32992 14.988288 11.728896 18.292736 28.97408 21.039104 49.45408 39.68-25.040896 78.17216-46.754816 119.575552-62.487552 74.774528-28.416 152.738816-43.240448 231.749632-53.34016 27.787264-3.561472 27.392 21.55008 36.608 36.793344C907.246592 757.741568 818.182144 821.624832 721.041408 826.88512c-48.616448 2.629632-96.325632-0.186368-142.987264-16.407552-27.578368-9.588736-42.28608 5.538816-36.608 35.048448 2.792448 14.54592 7.540736 29.067264 7.819264 43.659264 0.72192 37.07392-28.834816 66.281472-64.674816 66.048-28.299264-0.162816-37.376-13.171712-25.274368-38.95808 12.055552-25.716736 17.967104-52.712448 20.271104-80.570368 2.699264-32.698368-12.474368-45.10208-43.823104-36.072448-40.936448 11.776-80.825344 27.298816-124.50816 27.671552-109.917184 0.930816-187.322368-49.711104-236.474368-146.409472" fill="#B5E6D1" p-id="2624"></path><path d="M657.693696 484.57728c0 18.060288-14.639104 32.72192-32.72192 32.72192-18.059264 0-32.720896-14.661632-32.720896-32.72192 0-18.059264 14.661632-32.720896 32.720896-32.720896 18.08384 0 32.72192 14.661632 32.72192 32.720896m-236.916736 0c0 18.060288-14.63808 32.72192-32.720896 32.72192-18.060288 0-32.72192-14.661632-32.72192-32.72192 0-18.059264 14.661632-32.720896 32.72192-32.720896 18.082816 0 32.720896 14.661632 32.720896 32.720896m518.423552 185.55392C907.246592 757.752832 818.182144 821.63712 721.041408 826.872832c-48.616448 2.629632-96.325632-0.186368-142.987264-16.407552-27.578368-9.587712-42.28608 5.53984-36.608 35.049472 2.792448 14.544896 7.540736 29.067264 7.819264 43.682816 0.72192 37.050368-28.834816 66.256896-64.674816 66.048-28.299264-0.186368-37.376-13.196288-25.274368-38.959104 12.055552-25.715712 17.967104-52.712448 20.271104-80.592896 2.699264-32.67584-12.474368-45.079552-43.823104-36.072448-40.936448 11.798528-80.825344 27.298816-124.50816 27.670528-109.917184 0.954368-187.322368-49.686528-236.474368-146.408448-38.772736-89.64608-25.413632-178.059264 7.749632-265.355264 16.546816-43.613184 41.424896-82.735104 73.332736-120.390656 31.184896 87.76192 87.34208 139.031552 183.737344 128.908288 72.40192-7.610368 122.671104-56.133632 142.54592-133.050368 0.09216-36.631552 1.792-73.16992-16.407552-107.42784-12.84608-24.132608-31.53408-42.401792-51.269632-60.20608-8.23808-4.14208-16.453632-8.28416-27.531264-13.846528C423.406592 84.077568 462.690304 69.392384 500.578304 52.02944c6.912-3.16416 12.706816 1.676288 18.408448 4.096 128.069632 54.272 243.805184 126.604288 334.312448 234.124288 59.276288 70.4 97.420288 150.806528 105.612288 243.75808 4.14208 46.941184-0.837632 92.532736-19.712 136.122368m-17.61792-372.805632C821.277696 156.38528 681.501696 66.94912 523.410432 3.181568 509.258752-2.520064 496.482304 0.22528 483.007488 5.321728c-58.437632 22.156288-113.780736 50.246656-166.167552 84.271104-13.381632 8.704-28.71808 16.780288-24.645632 36.25984 4.304896 20.641792 22.039552 18.547712 37.818368 20.246528 56.226816 6.05184 97.861632 49.594368 101.328896 105.076736 3.631104 57.995264-29.696 106.472448-82.73408 120.342528-81.175552 21.225472-150.412288-42.123264-141.684736-130.000896 1.559552-15.639552 2.351104-30.557184-14.405632-38.35392-15.988736-7.400448-25.972736 3.375104-35.909632 13.708288C73.12896 303.771648 19.136512 404.728832 2.93888 525.677568-28.665856 761.91744 200.05888 943.515648 424.710144 857.104384c-1.210368 20.410368-10.84416 34.512896-17.05984 49.826816-16.871424 41.472-2.09408 75.93984 39.54176 92.11392 74.681344 29.02016 152.32-25.903104 150.87616-108.24192-0.34816-18.78016 4.212736-22.644736 21.178368-18.47808 35.724288 8.773632 72.122368 7.120896 108.335104 4.608 137.146368-9.588736 244.851712-101.004288 274.106368-234.496 27.880448-127.279104-6.656-241.92-80.105472-345.111552" fill="#0DAF69" p-id="2625"></path></svg>